# xmcd
#
# Track frame offsets:
#   182
#   10030
#   24085
#   35495
#   48600
#   60875
#   75585
#   88125
#   97607
#   108175
#   121095
#   134077
#
# Disc length: 1950 seconds
#
# Revision: 2
# Processed by: cddbd v1.5.1PL0 Copyright (c) Steve Scherf et al.
# Submitted via: Media_Universe 3.0
#
DISCID=82079c0c
DTITLE=Merle Haggard - Merle Haggard Country Legend- disc. 2
DYEAR=1900
DGENRE=Country
TTITLE0=Mama Tried
TTITLE1=Branded Man
TTITLE2=Someday We'll Look Back
TTITLE3=Emptiest Arms In The World
TTITLE4=Things Aren't Funny Anymore
TTITLE5=It's All In The Movies
TTITLE6=The Bottle Let Me Down
TTITLE7=The Legend Of Bonnie and Clyde
TTITLE8=The Old Man From The Mountain
TTITLE9=Swinging Doors
TTITLE10=Everybody's Had The Blues
TTITLE11=If We Make It Throught Decenber
EXTD=
EXTT0=
EXTT1=
EXTT2=
EXTT3=
EXTT4=
EXTT5=
EXTT6=
EXTT7=
EXTT8=
EXTT9=
EXTT10=
EXTT11=
PLAYORDER=
